<svg xmlns="http://www.w3.org/2000/svg" 
	xmlns:xlink="http://www.w3.org/1999/xlink" width="183" height="35" viewBox="0 0 183 35">
	<defs>
		<path id="a" d="M0 .255h42.198V34.97H0z"/>
	</defs>
	<g fill="none" fill-rule="evenodd">
		<g>
			<mask id="b" fill="#fff">
				<use xlink:href="#a"/>
			</mask>
			<path fill="#d30d2b" d="M16.09 25.298c-1.38.986-4.062 1.657-6.35 1.657-5.047 0-7.295-2.603-7.295-7.178v-6.192H0V7.71h2.445V4.87L12.147.255V7.71h3.944v5.876h-3.944v3.904c0 2.011.394 2.683 1.696 2.683.67 0 1.656-.277 2.248-.592v5.718M21.966 29.124h3.155l.947-1.736-7.178-13.803h-1.46V7.71H30.17v5.876h-2.05l3.273 7.336 2.957-7.336h-1.813V7.71h9.662v5.876h-1.854L30.13 35h-8.164v-5.876" mask="url(#b)"/>
		</g>
		<path fill="#d30d2b" d="M43.413 20.526h2.445v-6.94h-2.445V7.708H55.56v2.603c1.498-1.144 3.943-2.919 7.65-2.919 4.339 0 7.218 2.248 7.218 7.81v5.323h2.208v5.876h-11.91v-9.78c0-1.853-.75-2.918-2.366-2.918-.828 0-1.972.394-2.8.946v5.876h2.72v5.876H43.414v-5.876M86.005 21.266c2.025 0 3.272-1.52 3.272-3.972 0-2.53-1.324-4.205-3.31-4.205-1.947 0-3.271 1.674-3.271 4.205 0 2.414 1.285 3.972 3.31 3.972zm-8.8 7.36c1.363.584 3.7.935 5.88.935 3.855 0 6.425-1.052 6.153-5.062-1.986 1.051-4.05 1.479-6.309 1.479-5.92 0-9.93-3.582-9.93-8.879 0-5.53 4.283-9.462 10.242-9.462 3.271 0 5.101 1.246 5.997 1.986V7.948h11.877v5.803h-2.298v11.175c0 7.166-4.089 9.97-13.356 9.97-4.012 0-8.412-.624-10.865-1.558l2.609-4.712zM102.69 20.526h2.524v-6.94h-2.524V7.708h11.595v4.693h.079c1.222-3.549 4.14-5.245 8.4-5.009v8.085c-5.758-.276-8.005 1.538-7.848 5.048h2.84v5.876H102.69v-5.876M135.896 11.456c-1.735 0-2.8 1.814-2.682 4.14h5.482c.158-2.8-1.183-4.14-2.8-4.14zm11.477 10.017c-1.578 3.51-5.443 5.482-10.767 5.482-9.229 0-12.856-4.694-12.856-9.78 0-5.956 4.89-10.018 11.988-10.018 5.995 0 11.99 2.84 12.068 10.885h-14.71c.04 2.918 1.262 4.535 3.431 4.535 1.262 0 2.287-.71 2.84-2.05l8.006.946zM178.26 12.483h-18.47a1.06 1.06 0 0 1-1.058-1.058V8.032a1.06 1.06 0 0 1 1.058-1.058h18.47a1.06 1.06 0 0 1 1.058 1.058v3.393a1.06 1.06 0 0 1-1.058 1.058M166.27 4.684v-3.38a1.06 1.06 0 0 1 1.058-1.057h3.394a1.06 1.06 0 0 1 1.058 1.058v3.38a1.06 1.06 0 0 1-1.058 1.057h-3.394a1.06 1.06 0 0 1-1.057-1.058M181.548 19.452h-25.046a1.061 1.061 0 0 1-1.058-1.058v-3.393c0-.582.477-1.058 1.058-1.058h25.046A1.06 1.06 0 0 1 182.606 15v3.393a1.06 1.06 0 0 1-1.058 1.058M181.548 26.402h-25.046a1.06 1.06 0 0 1-1.058-1.057V21.95a1.06 1.06 0 0 1 1.058-1.057h25.046a1.06 1.06 0 0 1 1.058 1.057v3.394a1.06 1.06 0 0 1-1.058 1.057"/>
	</g>
</svg>